<svg width="192" height="48" viewBox="0 0 192 48" fill="none" xmlns="http://www.w3.org/2000/svg">
<path d="M21.6696 0.00240572V7.26821C13.5026 8.43988 7.22321 15.4603 7.22321 23.9411C7.22321 33.2422 14.7691 40.7823 24.0774 40.7823C27.8623 40.7823 31.3584 39.5361 34.1706 37.4285L39.3159 42.5699C35.165 45.9622 29.8559 48 24.0774 48C10.7794 48 0 37.2288 0 23.9411C0 11.4665 9.50333 1.20776 21.6696 0.00240572ZM48.0343 26.347C47.5528 31.1852 45.641 35.6024 42.7205 39.1656L37.5751 34.0266C39.2292 31.8228 40.3512 29.2003 40.7606 26.347H48.0367H48.0343ZM26.4899 0.00240572C37.8641 1.13077 46.9075 10.1697 48.0391 21.5352H40.763C39.7084 14.1611 33.8696 8.3268 26.4899 7.27061V0V0.00240572Z" fill="url(#paint0_linear_26_129)"/>
<path d="M70.5679 35.0573C64.0001 35.0573 59.8873 30.6667 59.8873 23.3854C59.8873 16.1198 64.0313 11.7292 70.5679 11.7292C75.9942 11.7292 80.1226 15.1667 80.4822 20.2135H75.8848C75.4469 17.4479 73.3202 15.6354 70.5679 15.6354C67.0025 15.6354 64.7038 18.6198 64.7038 23.3698C64.7038 28.1823 66.9712 31.151 70.5836 31.151C73.3827 31.151 75.4 29.5104 75.9004 26.8385H80.4979C79.9662 31.8698 76.1037 35.0573 70.5679 35.0573Z" fill="url(#paint1_linear_26_129)"/>
<path d="M90.0844 35.026C85.0178 35.026 81.7808 31.776 81.7808 26.276C81.7808 20.8542 85.0647 17.5573 90.0844 17.5573C95.1042 17.5573 98.3881 20.8385 98.3881 26.276C98.3881 31.7917 95.1511 35.026 90.0844 35.026ZM90.0844 31.5417C92.3206 31.5417 93.7437 29.651 93.7437 26.2917C93.7437 22.9635 92.305 21.0417 90.0844 21.0417C87.8639 21.0417 86.4096 22.9635 86.4096 26.2917C86.4096 29.651 87.8326 31.5417 90.0844 31.5417Z" fill="url(#paint2_linear_26_129)"/>
<path d="M100.218 34.6667V12.1198H104.785V34.6667H100.218Z" fill="url(#paint3_linear_26_129)"/>
<path d="M114.918 35.026C109.852 35.026 106.615 31.776 106.615 26.276C106.615 20.8542 109.899 17.5573 114.918 17.5573C119.938 17.5573 123.222 20.8385 123.222 26.276C123.222 31.7917 119.985 35.026 114.918 35.026ZM114.918 31.5417C117.155 31.5417 118.578 29.651 118.578 26.2917C118.578 22.9635 117.139 21.0417 114.918 21.0417C112.698 21.0417 111.244 22.9635 111.244 26.2917C111.244 29.651 112.667 31.5417 114.918 31.5417Z" fill="url(#paint4_linear_26_129)"/>
<path d="M124.943 34.6667V17.9167H129.353V20.901H129.447C130.338 18.8229 132.105 17.6042 134.685 17.6042C138.407 17.6042 140.502 19.9479 140.502 23.8698V34.6667H135.936V24.8229C135.936 22.6354 134.904 21.3854 132.856 21.3854C130.807 21.3854 129.509 22.8854 129.509 25.0573V34.6667H124.943Z" fill="url(#paint5_linear_26_129)"/>
<path d="M142.833 34.6667V17.9167H147.399V34.6667H142.833ZM145.116 16.0729C143.74 16.0729 142.677 15.026 142.677 13.7135C142.677 12.3854 143.74 11.3542 145.116 11.3542C146.492 11.3542 147.556 12.3854 147.556 13.7135C147.556 15.026 146.492 16.0729 145.116 16.0729Z" fill="url(#paint6_linear_26_129)"/>
<path d="M149.495 34.6667V32.0729L157.846 21.4948V21.401H149.62V17.9167H163.147V20.8073L155.297 31.0885V31.1667H163.335V34.6667H149.495Z" fill="url(#paint7_linear_26_129)"/>
<path d="M172.577 20.9323C170.576 20.9323 169.137 22.4479 168.981 24.5417H176.096C176.002 22.401 174.61 20.9323 172.577 20.9323ZM176.158 29.5417H180.349C179.849 32.8229 176.846 35.026 172.702 35.026C167.542 35.026 164.446 31.7292 164.446 26.3698C164.446 21.026 167.573 17.5573 172.53 17.5573C177.409 17.5573 180.49 20.8542 180.49 25.9479V27.3385H168.934V27.6198C168.934 30.0104 170.451 31.651 172.781 31.651C174.454 31.651 175.736 30.8229 176.158 29.5417Z" fill="url(#paint8_linear_26_129)"/>
<path d="M182.211 34.6667V17.9167H186.621V20.9323H186.714C187.309 18.8073 188.732 17.651 190.702 17.651C191.234 17.651 191.687 17.7292 192 17.8229V21.8385C191.625 21.6823 190.999 21.5729 190.342 21.5729C188.091 21.5729 186.777 22.9479 186.777 25.3073V34.6667H182.211Z" fill="url(#paint9_linear_26_129)"/>
<path d="M23.8632 35.0573C17.2953 35.0573 13.1826 30.6667 13.1826 23.3854C13.1826 16.1198 17.3266 11.7292 23.8632 11.7292C29.2895 11.7292 33.4179 15.1667 33.7775 20.2135H29.18C28.7422 17.4479 26.6154 15.6354 23.8632 15.6354C20.2978 15.6354 17.999 18.6198 17.999 23.3698C17.999 28.1823 20.2665 31.151 23.8788 31.151C26.678 31.151 28.6953 29.5104 29.1957 26.8385H33.7932C33.2615 31.8698 29.399 35.0573 23.8632 35.0573Z" fill="url(#paint10_linear_26_129)"/>
<defs>
<linearGradient id="paint0_linear_26_129" x1="24.0196" y1="-1.33333" x2="24.0196" y2="46.6667" gradientUnits="userSpaceOnUse">
<stop stop-color="#8F78FC"/>
<stop offset="1" stop-color="#6A4FED"/>
</linearGradient>
<linearGradient id="paint1_linear_26_129" x1="24.0196" y1="-1.33333" x2="24.0196" y2="46.6667" gradientUnits="userSpaceOnUse">
<stop stop-color="#8F78FC"/>
<stop offset="1" stop-color="#6A4FED"/>
</linearGradient>
<linearGradient id="paint2_linear_26_129" x1="24.0196" y1="-1.33333" x2="24.0196" y2="46.6667" gradientUnits="userSpaceOnUse">
<stop stop-color="#8F78FC"/>
<stop offset="1" stop-color="#6A4FED"/>
</linearGradient>
<linearGradient id="paint3_linear_26_129" x1="24.0196" y1="-1.33333" x2="24.0196" y2="46.6667" gradientUnits="userSpaceOnUse">
<stop stop-color="#8F78FC"/>
<stop offset="1" stop-color="#6A4FED"/>
</linearGradient>
<linearGradient id="paint4_linear_26_129" x1="24.0196" y1="-1.33333" x2="24.0196" y2="46.6667" gradientUnits="userSpaceOnUse">
<stop stop-color="#8F78FC"/>
<stop offset="1" stop-color="#6A4FED"/>
</linearGradient>
<linearGradient id="paint5_linear_26_129" x1="24.0196" y1="-1.33333" x2="24.0196" y2="46.6667" gradientUnits="userSpaceOnUse">
<stop stop-color="#8F78FC"/>
<stop offset="1" stop-color="#6A4FED"/>
</linearGradient>
<linearGradient id="paint6_linear_26_129" x1="24.0196" y1="-1.33333" x2="24.0196" y2="46.6667" gradientUnits="userSpaceOnUse">
<stop stop-color="#8F78FC"/>
<stop offset="1" stop-color="#6A4FED"/>
</linearGradient>
<linearGradient id="paint7_linear_26_129" x1="24.0196" y1="-1.33333" x2="24.0196" y2="46.6667" gradientUnits="userSpaceOnUse">
<stop stop-color="#8F78FC"/>
<stop offset="1" stop-color="#6A4FED"/>
</linearGradient>
<linearGradient id="paint8_linear_26_129" x1="24.0196" y1="-1.33333" x2="24.0196" y2="46.6667" gradientUnits="userSpaceOnUse">
<stop stop-color="#8F78FC"/>
<stop offset="1" stop-color="#6A4FED"/>
</linearGradient>
<linearGradient id="paint9_linear_26_129" x1="24.0196" y1="-1.33333" x2="24.0196" y2="46.6667" gradientUnits="userSpaceOnUse">
<stop stop-color="#8F78FC"/>
<stop offset="1" stop-color="#6A4FED"/>
</linearGradient>
<linearGradient id="paint10_linear_26_129" x1="24.0196" y1="-1.33333" x2="24.0196" y2="46.6667" gradientUnits="userSpaceOnUse">
<stop stop-color="#8F78FC"/>
<stop offset="1" stop-color="#6A4FED"/>
</linearGradient>
</defs>
</svg>
